<svg xmlns="http://www.w3.org/2000/svg" width="72" height="72" viewBox="0 0 72 72">
  <g id="グループ_22" data-name="グループ 22" transform="translate(-248 -4285)">
    <rect id="長方形_28" data-name="長方形 28" width="72" height="72" rx="36" transform="translate(248 4285)" fill="#77a612"/>
    <path id="basket-shopping-solid" d="M7.154,8.952h9.692l-3.4-7.314A1.2,1.2,0,0,1,13.871.122.95.95,0,0,1,15.221.6L19.1,8.952h3.567A1.45,1.45,0,0,1,24,10.452a1.4,1.4,0,0,1-1.333,1.5L20.5,21.721a2.778,2.778,0,0,1-2.587,2.273H6.046a2.741,2.741,0,0,1-2.551-2.273L1.333,11.952A1.4,1.4,0,0,1,0,10.452a1.451,1.451,0,0,1,1.333-1.5H4.9L8.779.6a.95.95,0,0,1,1.35-.479,1.2,1.2,0,0,1,.425,1.517Zm.808,5.25a.712.712,0,0,0-.667-.75.77.77,0,0,0-.667.75v4.5a.712.712,0,0,0,.667.75.668.668,0,0,0,.667-.75Zm3.333,0v4.5a.712.712,0,0,0,.667.75.7.7,0,0,0,.7-.75V14.2a.743.743,0,0,0-.7-.75A.77.77,0,0,0,11.3,14.2Zm6.037,0A.671.671,0,1,0,16,14.2v4.5a.671.671,0,1,0,1.333,0Z" transform="translate(272 4309.006)" fill="#fff"/>
  </g>
</svg>
