<svg xmlns="http://www.w3.org/2000/svg" width="17" height="16.552" viewBox="0 0 17 16.552">
  <g id="グループ_85" data-name="グループ 85" transform="translate(-75.5 146.552)">
    <rect id="長方形_69" data-name="長方形 69" width="16" height="16" transform="translate(76 -146)" fill="none"/>
    <path id="basket-shopping-solid" d="M4.769,5.3h6.461L8.964.969A.667.667,0,1,1,10.147.354L12.733,5.3h2.378A.9.9,0,0,1,16,6.192a.872.872,0,0,1-.889.889L13.669,12.87a1.8,1.8,0,0,1-1.725,1.347H4.031a1.771,1.771,0,0,1-1.7-1.347L.889,7.081A.873.873,0,0,1,0,6.192.9.9,0,0,1,.889,5.3H3.267L5.853.354A.667.667,0,1,1,7.036.969Zm.539,3.111a.444.444,0,0,0-.444-.444.48.48,0,0,0-.444.444v2.667a.445.445,0,0,0,.444.444.417.417,0,0,0,.444-.444Zm2.222,0v2.667a.445.445,0,0,0,.444.444.437.437,0,0,0,.469-.444V8.414a.466.466,0,0,0-.469-.444A.48.48,0,0,0,7.531,8.414Zm4.025,0a.444.444,0,0,0-.889,0v2.667a.444.444,0,0,0,.889,0Z" transform="translate(76 -145.994)" fill="none" stroke="#41590c" stroke-width="1"/>
  </g>
</svg>
