<svg xmlns="http://www.w3.org/2000/svg" width="17" height="16" viewBox="0 0 17 16">
  <g id="グループ_78" data-name="グループ 78" transform="translate(48.5 49)">
    <rect id="長方形_62" data-name="長方形 62" width="16" height="16" transform="translate(-48 -49)" fill="none"/>
    <path id="envelope-solid" d="M8,73a2.389,2.389,0,0,1-1.474-.513L0,67.413V74.5A1.5,1.5,0,0,0,1.5,76h13A1.5,1.5,0,0,0,16,74.5V67.413L9.475,72.491A2.407,2.407,0,0,1,8,73ZM.509,66.541,7.14,71.7a1.4,1.4,0,0,0,1.721,0l6.631-5.159A1.412,1.412,0,0,0,16,65.5,1.5,1.5,0,0,0,14.5,64H1.5A1.5,1.5,0,0,0,0,65.5,1.319,1.319,0,0,0,.509,66.541Z" transform="translate(-48 -111)" fill="none" stroke="#77a612" stroke-width="1"/>
  </g>
</svg>
