<svg xmlns="http://www.w3.org/2000/svg" width="72" height="72" viewBox="0 0 72 72">
  <g id="グループ_21" data-name="グループ 21" transform="translate(-152 -4285)">
    <rect id="長方形_29" data-name="長方形 29" width="72" height="72" rx="36" transform="translate(152 4285)" fill="#77a612"/>
    <path id="facebook-brands" d="M32,20.073A12,12,0,1,0,18.125,32V23.563H15.077v-3.49h3.048v-2.66c0-3.026,1.79-4.7,4.532-4.7a18.359,18.359,0,0,1,2.686.236v2.97H23.83a1.74,1.74,0,0,0-1.955,1.885v2.266H25.2l-.532,3.49h-2.8V32A12.055,12.055,0,0,0,32,20.073Z" transform="translate(168.5 4301)" fill="#fff"/>
  </g>
</svg>
