<svg xmlns="http://www.w3.org/2000/svg" width="24" height="24" viewBox="0 0 24 24">
  <path id="instagram-brands" d="M11.928,37.672a6.153,6.153,0,1,0,6.152,6.153A6.143,6.143,0,0,0,11.928,37.672Zm0,10.154a4,4,0,1,1,4-4,4.007,4.007,0,0,1-4,4ZM19.766,37.42a1.435,1.435,0,1,1-1.435-1.435A1.432,1.432,0,0,1,19.766,37.42Zm4.075,1.457A7.1,7.1,0,0,0,21.9,33.848a7.147,7.147,0,0,0-5.028-1.939c-1.981-.112-7.919-.112-9.9,0a7.137,7.137,0,0,0-5.028,1.933A7.127,7.127,0,0,0,.009,38.871c-.112,1.981-.112,7.921,0,9.9A7.1,7.1,0,0,0,1.948,53.8a7.156,7.156,0,0,0,5.028,1.939c1.981.112,7.919.112,9.9,0A7.1,7.1,0,0,0,21.9,53.8a7.15,7.15,0,0,0,1.938-5.029C23.953,46.792,23.953,40.858,23.841,38.877ZM21.281,50.9A4.05,4.05,0,0,1,19,53.181c-1.579.627-5.327.482-7.073.482s-5.5.139-7.073-.482A4.05,4.05,0,0,1,2.574,50.9c-.626-1.58-.482-5.329-.482-7.074s-.139-5.5.482-7.074a4.05,4.05,0,0,1,2.281-2.281c1.579-.627,5.327-.482,7.073-.482s5.5-.139,7.073.482a4.05,4.05,0,0,1,2.281,2.281c.626,1.58.482,5.329.482,7.074S21.908,49.325,21.281,50.9Z" transform="translate(0.075 -31.825)" fill="#fff"/>
</svg>
